<?xml version="1.0" standalone="no"?>
<!DOCTYPE svg PUBLIC "-//W3C//DTD SVG 20010904//EN"
 "http://www.w3.org/TR/2001/REC-SVG-20010904/DTD/svg10.dtd">
<svg version="1.0" xmlns="http://www.w3.org/2000/svg"
 width="496.000000pt" height="503.000000pt" viewBox="0 0 496.000000 503.000000"
 preserveAspectRatio="xMidYMid meet">

<g transform="translate(0.000000,503.000000) scale(0.100000,-0.100000)"
fill="#000000" stroke="none">
<path d="M2290 4839 c-36 -20 -76 -44 -90 -51 -14 -8 -98 -57 -188 -109 -89
-52 -179 -103 -200 -115 -20 -11 -104 -61 -187 -109 -82 -49 -172 -101 -200
-117 -27 -16 -70 -42 -95 -58 -25 -16 -54 -34 -65 -39 -12 -5 -27 -17 -35 -27
-14 -16 -13 -16 9 -5 19 11 25 11 32 0 5 -8 9 -10 9 -5 0 6 5 5 12 -2 8 -8 17
-8 31 -1 11 6 32 8 47 5 20 -3 36 1 54 15 14 11 26 18 26 15 0 -5 80 37 145
75 17 10 46 27 65 37 19 10 70 40 113 65 43 26 80 47 82 47 1 0 58 32 126 72
68 39 138 79 154 88 17 10 59 34 95 55 98 57 114 65 129 65 13 0 46 -18 266
-145 55 -32 116 -66 135 -77 19 -11 64 -37 100 -58 36 -21 83 -48 105 -61 22
-12 64 -36 94 -53 29 -17 83 -47 120 -66 36 -20 78 -43 92 -53 25 -17 59 -14
59 4 0 5 5 9 10 9 7 0 7 -8 -1 -22 -8 -17 -2 -14 20 10 17 18 29 36 28 40 -3
12 -86 64 -192 121 -16 9 -73 42 -125 73 -227 134 -328 193 -370 216 -25 14
-74 42 -109 64 -34 21 -65 38 -67 38 -2 0 -32 17 -66 38 -105 64 -95 63 -168
21z m-885 -619 c-3 -5 -12 -10 -18 -10 -7 0 -6 4 3 10 19 12 23 12 15 0z"/>
<path d="M2345 4661 c-6 -5 -35 -23 -65 -39 -30 -16 -100 -56 -155 -87 -55
-32 -118 -68 -140 -80 -22 -13 -67 -38 -100 -57 -33 -19 -172 -99 -310 -177
-137 -79 -275 -157 -305 -175 -30 -18 -84 -47 -120 -66 -36 -18 -73 -40 -83
-48 -14 -13 -22 -14 -35 -5 -9 6 -16 16 -15 22 2 6 1 11 -2 11 -3 0 -63 -32
-133 -71 -70 -40 -145 -82 -167 -94 -22 -12 -105 -59 -183 -105 -141 -82 -144
-84 -139 -114 2 -17 18 -101 35 -186 67 -337 92 -587 92 -940 0 -347 -28 -632
-96 -975 -20 -99 -37 -186 -37 -193 -2 -13 24 -29 353 -220 286 -165 295 -169
306 -150 4 6 3 9 -2 5 -5 -3 -18 1 -29 9 -10 8 -15 14 -10 14 5 0 -2 11 -15
25 -30 32 -20 32 36 -1 24 -14 41 -31 37 -36 -3 -6 -1 -8 4 -5 6 4 30 -4 54
-17 89 -47 235 -130 260 -148 l27 -18 208 276 c115 151 218 288 229 304 11 16
74 99 140 186 66 86 129 169 140 185 36 51 499 663 543 718 24 29 41 55 39 57
-2 2 -109 -11 -238 -31 -227 -33 -404 -59 -481 -70 -45 -6 -47 3 -11 46 15 18
44 54 63 79 42 57 179 236 291 380 44 58 101 131 126 164 53 70 410 533 536
696 48 63 112 147 141 185 29 39 78 102 109 141 l56 71 -127 73 c-70 40 -174
100 -232 133 -58 33 -118 68 -135 77 -148 86 -236 137 -270 155 -22 12 -71 41
-109 64 -78 47 -69 44 -81 32z m-1298 -1336 c8 -22 21 -60 28 -85 8 -25 55
-164 105 -310 50 -146 116 -339 147 -430 30 -91 57 -167 59 -169 2 -2 6 2 8
10 45 142 206 637 261 804 l72 220 151 3 c85 1 152 -1 152 -6 0 -5 -34 -106
-76 -223 -42 -118 -100 -281 -129 -364 -29 -82 -79 -222 -110 -310 -32 -88
-81 -227 -110 -310 -29 -82 -58 -162 -64 -177 l-11 -28 -153 0 -153 0 -93 263
c-52 144 -116 323 -142 397 -26 74 -64 180 -84 235 -58 158 -85 236 -105 295
-11 30 -33 93 -49 140 -17 47 -31 86 -31 88 0 1 70 1 157 0 l156 -3 14 -40z"/>
<path d="M3652 4403 c-18 -24 -30 -48 -27 -52 2 -5 34 -26 69 -47 69 -42 94
-70 78 -86 -7 -7 -39 5 -97 36 -48 25 -91 46 -95 46 -5 0 -67 -78 -139 -172
-72 -95 -166 -218 -208 -273 -42 -55 -151 -197 -242 -315 -91 -118 -208 -271
-260 -339 -100 -129 -129 -168 -296 -386 -54 -71 -110 -144 -124 -162 -49 -61
-71 -91 -71 -97 0 -3 12 -6 28 -6 25 0 82 8 513 74 170 27 209 30 209 20 0 -3
-9 -18 -21 -32 -11 -15 -48 -63 -81 -107 -33 -44 -79 -104 -101 -134 -23 -29
-51 -66 -62 -82 -11 -15 -88 -117 -171 -226 -291 -381 -459 -603 -484 -637
-14 -19 -105 -141 -204 -271 -98 -129 -177 -237 -175 -239 2 -2 22 -13 44 -25
22 -12 47 -26 55 -31 16 -10 461 -264 704 -402 l138 -78 52 28 c28 16 96 55
151 87 55 32 118 68 140 80 22 12 85 48 140 80 55 31 118 67 140 80 22 12 90
51 150 85 61 35 151 86 200 113 50 28 97 56 105 63 8 7 27 16 43 19 15 4 27
11 27 15 0 4 8 11 17 14 16 6 16 6 0 -12 -13 -15 -14 -21 -4 -32 9 -10 9 -11
0 -6 -8 4 -13 2 -13 -6 0 -14 -18 -26 -230 -151 -235 -139 -303 -179 -385
-225 -44 -24 -96 -55 -115 -67 -19 -12 -100 -59 -180 -105 -80 -46 -162 -93
-182 -106 -21 -13 -45 -24 -53 -24 -9 0 -46 17 -83 39 -351 202 -670 387 -802
464 l-95 56 -18 -22 c-10 -12 -27 -32 -38 -45 l-19 -23 30 -17 c17 -9 111 -64
208 -121 97 -57 276 -161 397 -231 121 -70 264 -153 317 -184 l97 -57 33 17
c18 9 121 67 228 129 107 62 220 126 250 143 30 17 111 62 179 101 89 50 128
68 137 60 8 -7 11 -5 10 7 -1 17 36 41 159 104 33 18 61 31 63 31 1 -1 15 5
31 13 16 9 31 13 33 10 3 -2 11 2 18 11 7 8 17 15 23 15 15 0 -36 -37 -58 -42
-17 -3 -15 -5 7 -10 15 -3 25 -1 22 3 -3 5 12 17 33 26 21 9 45 23 54 30 9 8
25 15 36 17 10 2 80 39 154 82 345 199 611 351 684 392 44 25 82 47 85 49 2 2
-6 43 -18 91 -40 160 -104 507 -103 565 0 15 -5 27 -11 27 -7 0 -9 16 -4 47
l6 48 -24 -35 c-16 -23 -21 -40 -16 -51 5 -8 7 -28 5 -44 -4 -44 21 -232 58
-429 29 -149 32 -180 20 -191 -7 -8 -52 -33 -98 -56 -47 -23 -88 -46 -91 -51
-3 -4 -10 -6 -15 -2 -6 3 -5 12 3 21 11 14 10 15 -8 9 -12 -4 -34 -1 -48 5
-21 10 -29 10 -39 0 -9 -10 -8 -11 8 -5 19 7 19 6 2 -12 -15 -16 -19 -17 -27
-4 -7 11 -10 11 -10 2 0 -7 -5 -10 -11 -6 -12 7 -3 20 30 38 95 54 184 112
188 124 4 8 -6 65 -20 126 -98 408 -138 963 -103 1414 18 227 61 515 101 675
14 54 25 104 25 111 0 12 -163 118 -211 138 -24 10 -31 25 -14 32 8 3 17 1 20
-4 7 -11 77 12 82 27 2 6 -7 10 -19 9 -32 -3 -45 6 -22 15 18 7 18 8 -3 8 -12
1 -23 4 -25 9 -4 9 -62 47 -157 103 -82 48 -80 47 -349 202 -103 60 -196 114
-207 122 -18 12 -23 9 -53 -32z m705 -425 c37 -14 42 -23 14 -31 -12 -3 -18 0
-15 7 3 7 -8 17 -23 23 -38 15 -17 16 24 1z m-583 -1302 c172 -55 275 -174
301 -349 l7 -44 -39 -6 c-21 -4 -86 -7 -145 -7 l-107 0 -15 54 c-31 105 -121
153 -274 144 -138 -8 -220 -66 -208 -148 11 -75 72 -104 401 -193 161 -44 230
-75 294 -133 70 -63 108 -134 123 -228 22 -144 -16 -271 -110 -369 -63 -65
-132 -102 -238 -127 -78 -19 -108 -21 -239 -17 -214 7 -313 42 -415 146 -62
64 -92 119 -121 218 -29 103 -28 109 29 116 47 6 199 21 216 22 4 0 16 -26 26
-58 44 -142 138 -207 299 -207 90 0 156 19 202 58 50 43 69 80 69 132 0 96
-48 129 -281 189 -275 72 -365 113 -440 203 -173 207 -86 505 175 597 96 34
149 40 286 36 98 -3 142 -9 204 -29z"/>
<path d="M600 3929 c0 -6 -4 -8 -9 -4 -5 3 -12 1 -16 -5 -3 -6 1 -13 9 -16 9
-3 13 -10 10 -15 -3 -5 -12 -2 -21 6 -13 14 -19 13 -54 -7 -21 -12 -43 -33
-49 -47 -8 -21 -9 -22 -6 -4 5 27 8 28 -113 -47 -46 -27 -85 -50 -88 -50 -3 0
-21 -11 -40 -26 -41 -31 -41 -46 -7 -179 14 -55 25 -108 25 -117 0 -10 5 -18
11 -18 6 0 8 11 3 27 -5 21 -4 24 7 16 10 -9 13 -2 15 33 1 26 -3 44 -9 44 -6
0 -9 3 -6 6 3 3 0 31 -8 62 -7 31 -13 62 -14 69 0 6 24 25 52 40 76 42 121 68
167 97 22 15 45 26 51 26 5 0 10 7 10 16 0 8 5 12 11 8 6 -3 15 0 20 7 13 21
11 29 -8 29 -9 0 -13 3 -10 7 4 3 18 0 32 -7 22 -12 28 -12 42 3 14 14 15 17
3 17 -12 1 -11 4 3 14 15 12 16 14 2 20 -8 3 -15 1 -15 -5z"/>
<path d="M4508 3933 c6 -2 18 -2 25 0 6 3 1 5 -13 5 -14 0 -19 -2 -12 -5z"/>
<path d="M640 3926 c0 -2 7 -7 16 -10 8 -3 12 -2 9 4 -6 10 -25 14 -25 6z"/>
<path d="M3715 740 c3 -5 12 -7 20 -3 21 7 19 13 -6 13 -11 0 -18 -4 -14 -10z"/>
<path d="M3676 724 c-5 -14 -4 -15 9 -4 17 14 19 20 6 20 -5 0 -12 -7 -15 -16z"/>
<path d="M3625 700 c3 -5 11 -10 16 -10 6 0 7 5 4 10 -3 6 -11 10 -16 10 -6 0
-7 -4 -4 -10z"/>
<path d="M1296 661 c-3 -5 -15 -7 -25 -4 -10 3 -22 0 -25 -6 -5 -7 -1 -8 10
-4 11 4 15 2 11 -4 -4 -6 3 -8 18 -5 14 2 25 11 25 18 0 16 -6 18 -14 5z"/>
<path d="M1296 618 c3 -5 10 -6 15 -3 13 9 11 12 -6 12 -8 0 -12 -4 -9 -9z"/>
</g>
</svg>
